<svg xmlns="http://www.w3.org/2000/svg" xmlns:xlink="http://www.w3.org/1999/xlink" version="1.1" x="0px" y="0px" viewBox="0 0 100 125" enable-background="new 0 0 100 100" xml:space="preserve"><g><g><g><g><g><path d="M38.517,91.929C38.62,91.993,38.693,91.943,38.517,91.929L38.517,91.929z"/><path d="M17.369,19.107c0.027-0.025,0.034-0.043,0.058-0.07c-0.1-0.186-0.184-0.351-0.238-0.486L17.369,19.107z"/><path d="M29.765,11.261c0.041,0.003,0.067,0.006,0.104,0.009C29.807,11.167,29.768,11.053,29.765,11.261z"/><path d="M6.908,50.259c-0.007,0.124,0.041,0.192,0.108,0.24C6.97,50.429,6.929,50.356,6.908,50.259z"/><path d="M64.15,89.975c0,0-0.03,0.022-0.052,0.038c0.06,0.021,0.117,0.031,0.183,0.062L64.15,89.975z"/><path d="M63.996,90.395c-0.342-0.033-0.011-0.297,0.102-0.382c-0.413-0.139-0.737-0.044-1.025,0.192       C63.171,90.499,63.776,90.231,63.996,90.395z"/><path d="M91.21,55.311l0.103,0.152C91.289,55.403,91.251,55.355,91.21,55.311z"/><path d="M22.1,49.257c0.025,0.046,0.036,0.098,0.065,0.141C22.178,49.326,22.146,49.286,22.1,49.257z"/><path d="M89.411,62.29l0.441,0.221C89.682,62.383,89.54,62.323,89.411,62.29z"/><path d="M17.189,18.551l-0.064-0.213C17.131,18.396,17.157,18.468,17.189,18.551z"/><path d="M42.461,7.287c0.031,0.147,0.081,0.261,0.134,0.356c0.016-0.003,0.029-0.003,0.037-0.002L42.461,7.287z"/><path d="M84.898,42.873c0.059-0.016,0.12-0.038,0.183-0.067l-0.394-0.142C84.745,42.769,84.822,42.835,84.898,42.873z"/><path d="M60.017,9.989c0.028-0.051,0.081-0.091,0.099-0.151c-0.25-0.223-1.003-0.487-1.995-0.667l-0.177,0.58       c0,0,0.131,0.005,0.327,0.012c0.193,0.025,0.451,0.057,0.709,0.09C59.498,9.922,60.017,9.989,60.017,9.989z"/><path d="M67.646,29.252c0,0-0.007-0.11-0.018-0.275c-0.01-0.167-0.026-0.39-0.062-0.594c-0.066-0.424-0.132-0.847-0.132-0.847       c0.943,0.458,1.556,1.126,2.166,1.662c0.619,0.532,1.033,1.158,1.475,1.72c0.44,0.566,0.897,1.085,1.332,1.678       c0.441,0.585,1.062,1.092,1.713,1.723l-0.319-0.024c0.014,0.296,0.622,0.132,1.268,0.752c0.302,0.319,0.708,0.787,0.845,1.669       c0.139,0.872,0.324,2.018-0.048,3.62l-0.113,0.042c0.084,0.169,0.311,0.088,0.138,0.549l0.37-1.149       c0.478,0.43,1.201,0.722,1.561,1.445c-0.063,0.197-0.305,0.33-0.48,0.401l0.668,1.807l-0.613,0.732       c0.541,0.464,2.087-0.079,1.432,1.658c1.038-0.772,0.804,0.704,1.352,0.434c-0.127,0.101-0.307,0.313-0.478,0.483       c0.214,0.951,0.599,2.786,1.228,3.262c0,0,0.575-1.016,1.242-2.196c0.76-1.218,1.365-2.675,1.901-3.368       c-0.069,1.609,0.202,0.399,0.534,0.022l-0.297-0.06c0.132-0.991,0.842-1.132,0.962-1.659c-0.056,0.012-0.123,0.04-0.191,0.068       l0.104,0.043c-0.118,0.071-0.209,0.061-0.287,0.024c-0.149,0.042-0.27,0.021-0.298-0.243l0.087,0.034       c-0.205-0.372-0.269-1.075-0.295-1.385l0.584-0.154c-0.324-0.108-0.456-0.481-0.476-1.006       c-0.011-0.262,0.009-0.564,0.041-0.888c0.006-0.316,0.028-0.656,0.057-1.005c0.098-1.38,0.369-2.969,0.119-3.431       c0.222-1.254-1.146-2.046-1.448-3.347c-0.913-1.882,0.217-1.34,0.101-2.534c-0.387-1.359-0.45,0.613-0.766,0.173       c0,0-0.033-0.457-0.067-0.913c-0.051-0.449-0.129-0.891-0.129-0.891c0.623,0.717,0.619,0.103,0.705-0.173       c-0.762-1.175-1.246-3.754-2.517-3.261c-0.861-1.81-0.531-2.16-1.058-2.824c0.036,0.364,0.269,0.914,0.095,1.084       c-0.144-0.945-0.345-0.184-0.218,0.132c-0.303-0.121-0.581-0.586-0.935-1.134c-0.356-0.544-0.735-1.228-1.122-1.882       c-0.742-1.34-1.643-2.404-2.144-1.956l0.147-0.191c-0.82,0.615-1.058,1.631-2.028,1.585l-0.169-0.675l-0.892-0.137       c-0.252-0.585,0.107-0.644,0.177-0.743c-0.674-0.192-1.35-0.598-2.006-1.119c-0.667-0.5-1.304-1.144-2.021-1.527       c0,0,0.084,0.775,0.124,1.562c0.021,0.796,0.042,1.593,0.042,1.593c-0.375-0.625-0.967-1.44-1.559-2.029       c-0.585-0.598-1.151-0.978-1.443-0.639c0,0-0.088-0.292-0.176-0.584c-0.089-0.295-0.188-0.582-0.188-0.582       c-1.924-2.544-2.033,0.05-2.847-0.801c0,0-0.242-0.349-0.485-0.698c-0.248-0.344-0.516-0.655-0.516-0.655       s0.334,0.079,0.657,0.194c0.321,0.121,0.642,0.242,0.642,0.242c-0.561-0.487-0.97-0.809-1.348-1.129       c-0.377-0.328-0.72-0.665-1.19-1.117c-0.002,0.01-0.016,0.013-0.019,0.023c0.066,0.059,0.103,0.117,0.099,0.177l-0.197-0.026       c-0.289,0.438-1.063,0.566-2.007,0.323c-0.673-0.176-1.311-0.127-2.026-0.201c-0.358-0.037-0.737-0.106-1.157-0.25       c-0.21-0.072-0.431-0.163-0.665-0.278c-0.236-0.095-0.487-0.21-0.755-0.355l-0.626,0.972l-1.62-0.681l0.023-0.799       c0.828,0.073,2.028,0.039,3.29,0.079c1.256,0.108,2.581,0.224,3.649,0.373l0.109-0.352c-1.278-0.203-2.772-0.07-3.595-0.271       c-0.378-0.248-1.387-1.09-0.554-1.597l-0.875,0.735c-2.172-0.063-3.257-0.121-4.374-0.119c-0.559-0.02-1.126-0.069-1.845-0.153       c-0.361-0.045-0.759-0.095-1.213-0.152c-0.454-0.048-0.962-0.054-1.549-0.086l0.447,0.339c-0.871,0.367-1.713,0.73-2.075,0.129       c-1.386,0.095-2.768,0.365-4.102,0.412c-1.341,0.03-2.569,0.09-3.616-0.063L34.82,9.017c-0.563,0.15-1.952-0.851-1.722,0.471       c-0.016-0.029-0.984,0.908-0.984,0.908c-0.762,0.284-0.964,0.978-2.032,0.896l0,0l-0.006,0       c-0.066-0.005-0.136-0.01-0.207-0.022c0.013,0.026,0.029,0.045,0.045,0.065c-0.923,0.212-0.81,0.414-0.741,0.598       c0.068,0.187,0.106,0.372-0.918,0.672c-0.916-0.229-0.018,1.408-0.967,1.737c0,0-0.397-0.153-0.794-0.306       c-0.403-0.148-0.806-0.296-0.806-0.296c-1.937,0.465-1.446,1.726-3.478,3.374c-1.246,0.474-2.513,0.069-2.539-1.291       c-0.07,1.738,0.125,0.974-0.633,2.477c-0.535-0.199-0.49-0.388-0.545-0.96c-1.48,0.547-0.307,0.947-1.068,1.696       c0.483,0.894,1.373,2.185,1.201,2.467l0.483-0.086c-0.324,1.151-0.956,2.082-2.036,2.793l-0.352-0.335l-0.596,1.203       l-0.547-0.299c0,0-0.993,1.627-0.958,1.648l0.276-0.127c-0.171,0.424-0.743,1.77-1.451,2.318l-0.28-0.2       c-0.528,0.378-0.953,0.798-1.214,1.299c-0.264,0.5-0.439,1.04-0.583,1.603c-0.29,1.128-0.471,2.329-0.854,3.654l-0.527-0.594       c-0.98,0.648,0.916,0.628,0.207,1.554l-0.83-0.233c0.744,1.308-0.697,1.121-1.279,1.687l1.161,0.016l-0.556,1.182       c-0.718,1.283-1.601,0.507-2.116,0.14l0.613,1.188L6.172,39.88c0.963,0.97-0.407,0.676,0.012,2.081       C5.797,42,5.636,41.634,5.409,42.046c0,0,0.264,0.588,0.527,1.175c0.269,0.572,0.537,1.143,0.537,1.143l-0.425-1.348       l1.413,0.376c0.916,1.425-0.453,1.702-0.108,2.67c0,0-0.392-0.673-0.376-0.674c0.231,1.534-0.363,1.56-0.737,2.408       c0.283-0.256,0.705-0.631,0.863-0.014C7.161,48.232,6.581,48,6.4,48.421c0.985,0.147,1.374,1.204,0.98,2.169       c-0.139-0.01-0.272-0.029-0.363-0.091c0.168,0.247,0.423,0.368,0.211,0.805l-1.088-0.228l1.064,0.806       c-0.267,0.573,0.555,1.328-0.173,1.307l-0.232-0.302c0,0-0.002,0.266-0.004,0.666c-0.001,0.4-0.018,0.934,0.046,1.464       c0.095,1.066,0.19,2.131,0.19,2.131l-0.84,0.2c0.617,0.116,0.596,0.711,0.604,1.238c0.003,0.527,0.108,0.965,0.802,0.739       c-0.59,0.976,1.338,2.925-0.387,2.913c0.076,0.352,0.173,0.677,0.286,0.981c0.135,0.297,0.288,0.573,0.446,0.838       c0.318,0.529,0.666,1.008,1.001,1.507c0.342,0.495,0.64,1.022,0.938,1.62c0.317,0.591,0.585,1.274,0.777,2.137       c-0.799,1.771,1.367,4.563,2.533,6.476c0.778,0.804,1.494,1.518,2.178,2.187c0.688,0.665,1.431,1.213,2.121,1.798       c1.36,1.193,2.892,2.189,4.655,3.476c0.378,1.594,1.867,2.467,3.373,3.222c1.603,0.637,3.182,1.232,4.195,2.355l1.054-0.36       c0.57,0.945,1.66,1.473,2.889,1.852c1.24,0.369,2.528,0.802,3.624,1.773c0.731-0.161,1.085-0.182,1.239-0.171       c-0.106-0.066-0.243-0.256-0.162-0.749c0.629,0.527,2.195,0.473,1.869,1.416l-0.21,0.052c-0.169,0.47,0.424,0.503,1.132,0.538       c0.719-0.018,1.545-0.04,1.9,0.45l-0.285-1.123l1.376,0.392L43.73,93.05c0.811-0.189,1.537-0.25,2.22-0.348       c0.682-0.099,1.313-0.136,1.914-0.131c1.2,0.012,2.283,0.218,3.372,0.268c1.086,0.082,2.178,0.192,3.338,0.071       c1.153-0.191,2.382-0.573,3.68-1.327c-0.262,0.63-0.013,0.436,0.341,0.239c0.347-0.229,0.79-0.471,0.968,0.14       c0.885,0.602,1.546,0.343,2.079-0.147c0.534-0.5,0.956-1.186,1.433-1.609c-0.019-0.059-0.029-0.134,0.004-0.25l1.968-0.555       c-0.573,1.925,0.9-1.753,0.342-0.089c2.719-0.388,5.535-1.852,8.183-3.66c0.671-0.44,1.28-0.982,1.923-1.474       c0.627-0.514,1.288-0.986,1.888-1.527c0.595-0.547,1.193-1.085,1.797-1.607l0.911-0.77l0.864-0.801l-0.483-0.085       c1.12-1.116,2.065-2.838,3.252-3.423c1.246-0.585,0.735-2.688,0.879-3.108c0.062-1.461,1.871-1.72,1.527-1.291       c0.264-0.652,0.286-1.411,0.327-2.209c0.043-0.801,0.191-1.589,0.882-2.302c0.379-0.003,0.634-0.334,0.82-0.815       c0.163-0.491,0.219-1.146,0.285-1.767c0.125-1.247,0.223-2.38,0.967-2.182l-0.117-0.058c0.825-1.009,0.943-2.225,1.037-3.426       c0.079-1.213-0.013-2.439,0.684-3.659c0,0,0.105,0.063,0.194,0.164c0,0-0.241-0.361-0.602-0.902       c-0.364-0.534-0.94-1.233-1.48-1.896C88.03,51.174,86.921,50,86.921,50s-1.299,0.339-2.597,0.627       c-1.298,0.293-2.595,0.535-2.595,0.535s-1.089,0.852-2.16,1.579c-0.512,0.37-1.147,0.699-1.564,0.941       c-0.432,0.234-0.72,0.39-0.72,0.39s-0.02,0.525-0.05,1.314c-0.069,0.784-0.266,1.813-0.395,2.876       c-0.258,1.035-0.515,2.071-0.709,2.848c-0.276,0.756-0.46,1.261-0.46,1.261s-0.274,0.339-0.684,0.848       c-0.414,0.502-1.079,1.094-1.664,1.706l-0.443,0.45c-0.164,0.134-0.325,0.266-0.481,0.394       c-0.308,0.251-0.596,0.486-0.842,0.686c-0.481,0.397-0.801,0.662-0.801,0.662S70.104,67.851,69.158,69       c-0.53,0.521-1.149,1.128-1.812,1.779c-0.711,0.596-1.492,1.213-2.273,1.831c-0.85,0.511-1.643,1.132-2.47,1.565       c-0.839,0.406-1.585,0.879-2.279,1.159c-0.695,0.281-1.275,0.516-1.681,0.68c-0.203,0.085-0.362,0.152-0.47,0.198       c-0.113,0.032-0.173,0.049-0.173,0.049s-0.2,0.347-0.399,0.694c-0.211,0.352-0.422,0.704-0.422,0.704       c-0.461-0.143-0.908-0.217-1.348-0.235c-0.443-0.028-0.896-0.078-1.339-0.046c-0.889,0.047-1.78,0.277-2.713,0.346       c-0.924,0.114-1.868,0.308-2.795,0.189c-0.922-0.083-1.84-0.175-2.626-0.719l-0.203,0.976c-0.993-0.094-0.824-0.69-1.031-0.896       c-4.459-0.584-8.885-2.284-12.643-4.915c-3.786-2.593-6.586-6.434-7.784-10.385c0.171-0.945-0.929-3.045-0.5-3.816       c-1.874-2.116-2.424-5.049-2.31-7.724l0.116,0.099c0,0-0.079-0.313-0.123-0.629c-0.029-0.317-0.058-0.633-0.058-0.633       c0.085-0.052,0.203-0.055,0.278-0.012c-0.374-0.716-0.414-1.668-0.117-2.596c0.331-0.925,0.698-1.867,1.095-2.648l0.08,0.119       c0.353-1.187,0.573-2.396,1.029-3.53c0.218-0.567,0.327-1.179,0.605-1.72c0.246-0.554,0.483-1.113,0.712-1.676       c1.061-2.17,2.234-4.333,3.844-6.178c3.028-3.836,7.469-6.65,12.393-7.556c0.621,0.059,1.222,0.056,1.814,0       c0.296-0.028,0.59-0.068,0.883-0.12c0.299-0.027,0.599-0.053,0.901-0.08c0.601-0.068,1.203-0.174,1.813-0.306       c0.618-0.064,1.246-0.126,1.881-0.212l0.959-0.129l0.97-0.005c0.649,0.005,1.308-0.009,1.961,0.042       c1.284,0.244,2.601,0.444,3.749,1.171c0.084,0.15,0.316,0.309,0.658,0.47c0.171,0.08,0.37,0.161,0.592,0.24       c0.213,0.107,0.448,0.221,0.702,0.332c0.507,0.224,1.089,0.446,1.715,0.66c0.592,0.295,1.226,0.583,1.873,0.852       C64.735,27.573,67.158,29.098,67.646,29.252z"/><path d="M77.341,41.624l-0.015-0.04C76.926,41.709,77.092,41.724,77.341,41.624z"/><polygon points="68.335,14.406 68.42,14.459 68.346,13.766      "/><path d="M83.699,27.723c-0.39-0.856-0.539-0.807-0.587-0.614C83.298,27.386,83.485,27.611,83.699,27.723z"/><path d="M79.206,46.78c0.024,0.353,0.251,0.197,0.495-0.042c-0.102-0.358-0.173-0.606-0.173-0.606       C79.461,46.344,79.274,46.568,79.206,46.78z"/><path d="M84.607,44.457l0.356,0.078C84.843,44.3,84.722,44.331,84.607,44.457z"/></g></g></g></g></g></svg>
